<svg width="13" height="15" viewBox="0 0 13 15" fill="none" xmlns="http://www.w3.org/2000/svg">
<path fill-rule="evenodd" clip-rule="evenodd" d="M8.22071 0.984182C8.16525 0.873087 8.08678 0.775068 7.99052 0.696639C7.89425 0.61821 7.7824 0.561168 7.66238 0.529303C7.54237 0.497438 7.41695 0.49148 7.29446 0.511826C7.17197 0.532171 7.05521 0.578353 6.95195 0.647304C6.65007 0.848556 6.41469 1.13556 6.23269 1.41731C6.04544 1.70606 5.88006 2.04119 5.73394 2.39382C5.44168 3.09733 5.19668 3.94084 4.99893 4.78609C4.75978 5.81903 4.58068 6.86496 4.46255 7.91862C4.10654 7.68911 3.82048 7.36613 3.63567 6.98499C3.34866 6.38999 3.28741 5.64273 3.28741 4.66272C3.28738 4.48969 3.23604 4.32055 3.13989 4.17669C3.04374 4.03283 2.90709 3.9207 2.74723 3.85449C2.58737 3.78828 2.41146 3.77095 2.24175 3.8047C2.07204 3.83845 1.91614 3.92175 1.79377 4.04409C1.22428 4.61235 0.77266 5.28751 0.464833 6.0308C0.157006 6.77409 -0.000960857 7.57087 4.39703e-06 8.37538C7.70758e-05 9.38262 0.248547 10.3743 0.723408 11.2626C1.19827 12.1509 1.88486 12.9083 2.72237 13.4679C3.55989 14.0274 4.52247 14.3718 5.52486 14.4705C6.52726 14.5692 7.53852 14.4192 8.46908 14.0337C9.39965 13.6483 10.2208 13.0393 10.8598 12.2607C11.4988 11.4821 11.9359 10.5579 12.1324 9.57C12.3289 8.58212 12.2788 7.56102 11.9864 6.59714C11.6941 5.63326 11.1685 4.75635 10.4564 4.04409C9.93835 3.52696 9.59885 3.1822 9.27685 2.76045C8.95922 2.34395 8.64334 1.83032 8.22071 0.984182ZM7.98008 11.9804C7.61298 12.3471 7.14545 12.5967 6.63655 12.6978C6.12765 12.7989 5.6002 12.7469 5.12082 12.5484C4.64145 12.3499 4.23164 12.0138 3.94317 11.5826C3.6547 11.1513 3.5005 10.6442 3.50004 10.1254C3.50004 10.1254 4.26917 10.5629 5.68756 10.5629C5.68756 9.68789 6.12507 7.06287 6.78132 6.62536C7.21883 7.50037 7.46908 7.75675 7.98096 8.2695C8.22512 8.51292 8.41876 8.80219 8.55076 9.12068C8.68275 9.43918 8.75049 9.78063 8.75009 10.1254C8.75049 10.4702 8.68275 10.8116 8.55076 11.1301C8.41876 11.4486 8.22512 11.7379 7.98096 11.9813L7.98008 11.9804Z" fill="#F6A821"/>
</svg>
