<?xml version="1.0" encoding="iso-8859-1"?>
<!-- Uploaded to: SVG Repo, www.svgrepo.com, Generator: SVG Repo Mixer Tools -->
<svg fill="#000000" height="800px" width="800px" version="1.1" id="Layer_1" xmlns="http://www.w3.org/2000/svg" xmlns:xlink="http://www.w3.org/1999/xlink" 
	 viewBox="0 0 512 512" xml:space="preserve">
<g>
	<g>
		<path d="M322.552,6.827c-1.707-1.707-3.413-3.413-5.973-3.413C295.246,0.853,276.472,0,255.992,0s-41.813,0.853-60.587,3.413
			c-2.56,0-4.267,1.707-5.973,3.413s-1.707,4.267-1.707,6.827l17.067,83.627c0.853,4.267,5.12,6.827,9.387,6.827
			c12.8-0.853,28.16-1.707,41.813-1.707s27.307,0.853,42.667,2.56c4.267,0,7.68-3.413,8.533-7.68l17.067-83.627
			C324.259,11.093,324.259,8.533,322.552,6.827z M291.832,87.04c-12.8-0.853-23.893-1.707-35.84-1.707s-23.893,0.853-35.84,1.707
			l-13.653-67.413c16.213-1.707,33.28-2.56,49.493-2.56s32.427,0.853,49.493,2.56L291.832,87.04z"/>
	</g>
</g>
<g>
	<g>
		<path d="M264.526,153.6c-51.2-2.56-100.693,15.36-137.387,50.347c-38.4,35.84-58.88,84.48-58.88,137.387
			c0,65.707,34.987,127.147,92.16,161.28c10.24,5.973,22.187,9.387,34.987,9.387h121.173c12.8,0,24.747-3.413,34.987-9.387
			c58.027-34.133,93.013-97.28,92.16-163.84C442.019,242.347,361.806,159.573,264.526,153.6z M343.032,488.107
			c-7.68,4.267-17.067,6.827-26.453,6.827H195.406c-9.387,0-18.773-2.56-26.453-6.827c-51.2-30.72-83.627-87.04-83.627-146.773
			c0-47.787,18.773-92.16,52.907-124.587c31.573-29.867,72.533-46.08,116.053-46.08c3.413,0,6.827,0,9.387,0
			c88.747,5.12,162.133,80.213,162.987,168.107C427.512,400.213,395.086,457.387,343.032,488.107z"/>
	</g>
</g>
<g>
	<g>
		<path d="M321.699,263.68c-23.04-19.627-53.76-28.16-83.627-23.04c-32.427,5.12-59.733,25.6-74.24,54.613
			c-19.627,39.253-12.8,85.333,17.92,116.907c8.533,9.387,21.333,14.507,34.133,14.507h79.36c12.8,0,24.747-5.12,33.28-12.8
			c18.773-19.627,29.013-45.227,29.013-71.68C357.539,311.467,344.739,283.307,321.699,263.68z M316.579,401.067
			c-5.12,5.12-12.8,8.533-21.333,8.533h-79.36c-7.68,0-15.36-3.413-21.333-9.387c-25.6-25.6-31.573-64-14.507-96.427
			c11.947-24.747,34.987-41.813,61.44-46.08c25.6-4.267,51.2,2.56,69.973,18.773c18.773,16.213,29.867,40.107,29.867,64.853
			C341.326,363.52,331.939,384.853,316.579,401.067z"/>
	</g>
</g>
<g>
	<g>
		<path d="M218.446,77.653l-10.24-50.347c-0.853-4.267-5.12-7.68-9.387-6.827c-19.627,1.707-39.253,5.12-58.027,9.387
			c-17.92,3.413-30.72,19.627-29.867,36.693c0,48.64,3.413,99.84,8.533,151.04c0,2.56,2.56,5.973,5.973,5.973
			c0.853,0.853,1.707,0.853,2.56,0.853c1.707,0,4.267-0.853,5.973-1.707c13.653-13.653,29.013-24.747,46.08-33.28
			c2.56-1.707,4.267-5.12,4.267-8.533c-2.56-31.573-4.267-60.587-5.12-87.893c10.24-2.56,21.333-4.267,31.573-5.12
			c2.56,0,4.267-1.707,5.973-3.413C218.446,82.773,219.299,80.213,218.446,77.653z M168.952,76.8
			c-4.267,0.853-6.827,4.267-6.827,8.533c0,28.16,1.707,58.027,5.12,90.453c-11.947,5.973-22.187,13.653-32.427,22.187
			c-4.267-44.373-6.827-88.747-6.827-133.12c-0.853-7.68,6.827-16.213,16.213-17.92c15.36-3.413,32.427-6.827,48.64-8.533
			l6.827,33.28C188.579,73.387,178.339,75.093,168.952,76.8z"/>
	</g>
</g>
<g>
	<g>
		<path d="M371.192,29.867c-18.773-4.267-38.4-7.68-58.027-8.533c-4.267-0.853-8.533,2.56-9.387,6.827l-10.24,50.347
			c0,2.56,0,5.12,1.707,6.827c1.707,1.707,3.413,3.413,5.973,3.413c11.093,0.853,21.333,2.56,31.573,4.267
			c-0.853,28.16-2.56,57.173-5.12,87.893c-0.853,3.413,0.853,6.827,4.267,8.533c17.067,8.533,33.28,19.627,46.08,33.28
			c1.707,1.707,3.413,2.56,5.973,2.56c0.853,0,2.56-0.853,2.56-0.853c3.413-0.853,5.973-3.413,5.973-6.827
			c5.973-51.2,8.533-102.4,8.533-151.04C401.912,49.493,389.112,33.28,371.192,29.867z M383.992,65.707
			c0,43.52-2.56,87.893-5.973,133.12c-10.24-8.533-20.48-16.213-32.427-22.187c2.56-32.427,3.413-62.293,4.267-91.307
			c0-4.267-2.56-7.68-6.827-8.533c-9.387-1.707-19.627-3.413-30.72-5.12l6.827-33.28c16.213,1.707,32.427,5.12,48.64,8.533
			C377.166,48.64,384.846,56.32,383.992,65.707z"/>
	</g>
</g>
</svg>