<svg width="32" height="32" viewBox="0 0 32 32" fill="none" xmlns="http://www.w3.org/2000/svg">
<path d="M28.8 13.6001H16.2667V18.5334H23.6C23.4667 19.7334 22.6667 21.6001 20.9334 22.8001C19.8667 23.6001 18.2667 24.1334 16.2667 24.1334C12.8 24.1334 9.73335 21.8667 8.66668 18.5334C8.40002 17.7334 8.26668 16.8001 8.26668 15.8667C8.26668 14.9334 8.40002 14.0001 8.66668 13.2001C8.80002 12.9334 8.80002 12.6667 8.93335 12.5334C10.1333 9.73341 12.9333 7.73342 16.2667 7.73342C18.8 7.73342 20.4 8.80008 21.4667 9.73342L25.2 6.00008C22.9333 4.00008 19.8667 2.66675 16.2667 2.66675C11.0667 2.66675 6.53335 5.60008 4.40002 10.0001C3.46668 11.8667 2.93335 13.8667 2.93335 16.0001C2.93335 18.1334 3.46668 20.1334 4.40002 22.0001C6.53335 26.4001 11.0667 29.3334 16.2667 29.3334C19.8667 29.3334 22.9333 28.1334 25.0667 26.1334C27.6 23.8667 29.0667 20.4001 29.0667 16.2667C29.0667 15.2001 28.9333 14.4001 28.8 13.6001Z" stroke="#A2A2A2" stroke-width="1.5" stroke-miterlimit="10" stroke-linecap="round" stroke-linejoin="round"/>
</svg>
