<svg width="42" height="38" viewBox="0 0 42 38" fill="none" xmlns="http://www.w3.org/2000/svg">
<path d="M20.9534 20.5916L20.9634 20.612L20.9732 20.6326L20.9828 20.6534L20.9922 20.6744L21.0014 20.6956L21.0103 20.717L21.019 20.7385L21.0276 20.7603L21.0358 20.7823L21.0439 20.8044L21.0517 20.8267L21.0593 20.8492L21.0667 20.8718L21.0738 20.8947L21.0806 20.9177L21.0873 20.9409L21.0936 20.9642L21.0998 20.9877L21.1056 21.0114L21.1113 21.0352L21.1166 21.0592L21.1217 21.0833L21.1266 21.1076L21.1311 21.132L21.1354 21.1565L21.1395 21.1813L21.1432 21.2061L21.1467 21.2311L21.1499 21.2562L21.1528 21.2814L21.1555 21.3068L21.1579 21.3323L21.1599 21.3579L21.1617 21.3836L21.1632 21.4094L21.1644 21.4353L21.1653 21.4614L21.1659 21.4875L21.1662 21.5138L21.1663 21.5401L21.166 21.5665L21.1654 21.5931L21.1645 21.6197L21.1633 21.6464L21.1618 21.6731L21.1599 21.7L21.1578 21.7269L21.1553 21.7538L21.1526 21.7809L21.1495 21.808L21.1461 21.8352L21.1424 21.8624L21.1383 21.8896L21.1339 21.9169L21.1292 21.9443L21.1242 21.9717L21.1189 21.9991L21.1132 22.0265L21.1072 22.054L21.1009 22.0815L21.0942 22.109L21.0872 22.1366L21.0799 22.1641L21.0722 22.1916L21.0642 22.2192L21.0559 22.2467L21.0472 22.2743L21.0382 22.3018L21.0289 22.3294L21.0192 22.3569L21.0092 22.3843L20.9988 22.4118L20.9881 22.4392L20.9771 22.4666L20.9657 22.494L20.9539 22.5213L20.9419 22.5486L20.9295 22.5758L20.9167 22.603L20.9036 22.6301L20.8902 22.6571L20.8764 22.6841L20.8623 22.711L20.8478 22.7378L20.833 22.7646L20.8179 22.7913L20.8024 22.8178L20.7866 22.8443L20.7704 22.8707L20.7539 22.897L20.737 22.9232L20.7198 22.9493L20.7023 22.9753L20.6844 23.0011L20.6662 23.0269L20.6477 23.0525L20.6288 23.0779L20.6096 23.1033L20.59 23.1285L20.5701 23.1536L20.5499 23.1785L20.5293 23.2032L20.5084 23.2278L20.4872 23.2523L20.4657 23.2766L20.4438 23.3007L20.4216 23.3247L20.399 23.3484L20.3762 23.372L20.353 23.3954L20.3295 23.4186L20.3057 23.4417L20.2815 23.4645L20.2571 23.4871L20.2323 23.5096L20.2072 23.5318L20.1818 23.5538L20.156 23.5756L20.13 23.5971L20.1037 23.6185L20.077 23.6396L20.0501 23.6605L20.0228 23.6811L19.9953 23.7015L19.9674 23.7217L19.9393 23.7416L19.9109 23.7612L19.8821 23.7806L19.8531 23.7998L19.8238 23.8186L19.7942 23.8372L19.7644 23.8556L19.7342 23.8736L19.7038 23.8914L19.6731 23.9089L19.6421 23.9261L19.6109 23.943L19.5794 23.9596L19.5476 23.9759L19.5156 23.992L19.4833 24.0077L19.4508 24.0231L19.418 24.0382L19.385 24.0529L19.3517 24.0674L19.3181 24.0815L19.2844 24.0953L19.2504 24.1088L19.2161 24.1219L19.1817 24.1347L19.147 24.1472L19.1121 24.1593L19.0769 24.1711L19.0416 24.1825L19.006 24.1936L18.9702 24.2043L18.9342 24.2147L18.898 24.2247L18.8617 24.2343L18.8251 24.2436L18.7883 24.2525L18.7514 24.261L18.7142 24.2691L18.6769 24.2769L18.6394 24.2843L18.6017 24.2913L18.5639 24.2979L18.5259 24.3041L18.4877 24.3099L18.4494 24.3153L18.4109 24.3203L18.3723 24.325L18.3335 24.3292L18.2946 24.333L18.2556 24.3364L18.2164 24.3394L18.1771 24.342L18.1377 24.3442L18.0981 24.3459L18.0585 24.3472L18.0187 24.3482L17.9788 24.3486L17.9389 24.3487L17.8988 24.3483L17.8586 24.3475L17.8184 24.3463L17.7781 24.3446L17.7377 24.3426L17.6972 24.34L17.6566 24.337L17.616 24.3336L17.5754 24.3298L17.5346 24.3255L17.4939 24.3207L17.453 24.3156L17.4122 24.3099L17.3713 24.3038L17.3304 24.2973L17.2894 24.2903L17.2484 24.2829L17.2074 24.275L17.1665 24.2666L17.1254 24.2578L17.0844 24.2486L17.0434 24.2389L17.0025 24.2287L16.9615 24.218L16.9205 24.207L16.8796 24.1954L16.8387 24.1834L16.7978 24.1709L16.757 24.158L16.7162 24.1446L16.6755 24.1307L16.6348 24.1164L16.5942 24.1016L16.5536 24.0863L16.5132 24.0706L16.4727 24.0544L16.4324 24.0378L16.3922 24.0207L16.352 24.0031L16.312 23.9851L16.2721 23.9665L16.2322 23.9476L16.1925 23.9282L16.1529 23.9083L16.1134 23.8879L16.074 23.8671L16.0348 23.8458L15.9957 23.8241L15.9568 23.8019L15.918 23.7792L15.8794 23.7561L15.8409 23.7325L15.8026 23.7085L15.7644 23.684L15.7265 23.6591L15.6887 23.6337L15.6511 23.6078L15.6137 23.5815L15.5765 23.5548L15.5395 23.5276L15.5027 23.4999L15.4661 23.4719L15.4297 23.4433L15.3936 23.4143L15.3576 23.3849L15.3219 23.3551L15.2865 23.3248L15.2513 23.294L15.2163 23.2629L15.1816 23.2313L15.1472 23.1993L15.113 23.1668L15.0791 23.1339L15.0455 23.1006L15.0121 23.0669L14.979 23.0327L14.9462 22.9982L14.9138 22.9632L14.8816 22.9278L14.8497 22.892L14.8181 22.8558L14.7868 22.8192L14.7559 22.7822L14.7253 22.7448L14.695 22.707L14.665 22.6688L14.6354 22.6302L14.6061 22.5912L14.5772 22.5518L14.5486 22.5121L14.5204 22.4719L14.4926 22.4315L14.4651 22.3906L14.4379 22.3493L14.4112 22.3077L14.3848 22.2658L14.3589 22.2235L14.3333 22.1808L14.3081 22.1378L14.2833 22.0944L14.2589 22.0507L14.2349 22.0066L14.2113 21.9622L14.1882 21.9175L14.1654 21.8724L14.1431 21.8271L14.1213 21.7814L14.0998 21.7353L14.0788 21.689L14.0582 21.6424L14.0381 21.5955L14.0184 21.5482L13.9992 21.5007L13.9804 21.4529L13.9621 21.4048L13.9442 21.3564L13.9269 21.3077L13.91 21.2588L13.8935 21.2096L13.8776 21.1601L13.8621 21.1104L13.8471 21.0604L13.8326 21.0101L13.8186 20.9597L13.8051 20.909L13.7921 20.858L13.7796 20.8068L13.7676 20.7554L13.7562 20.7038L13.7452 20.652L13.7347 20.5999L13.7248 20.5477L13.7154 20.4952L13.7065 20.4426L13.6982 20.3898L13.6903 20.3367L13.683 20.2836L13.6763 20.2302L13.6701 20.1767L13.6644 20.123L13.6593 20.0691L13.6547 20.0151L13.6506 19.961L13.6472 19.9067L13.6442 19.8523L13.6419 19.7978L13.6401 19.7431L13.6388 19.6884L13.6381 19.6335L13.638 19.5785L13.6384 19.5234L13.6395 19.4682L13.641 19.413L13.6432 19.3576L13.6459 19.3022L13.6492 19.2467L13.6531 19.1912L13.6576 19.1356L13.6626 19.0799L13.6683 19.0242L13.6745 18.9685L13.6813 18.9127L13.6887 18.8569L13.6966 18.8011L13.7052 18.7453L13.7144 18.6895L13.7241 18.6336L13.7344 18.5778L13.7454 18.522L13.7569 18.4662L13.769 18.4104L13.7817 18.3547L13.795 18.299L13.8089 18.2433L13.8234 18.1877L13.8385 18.1321L13.8542 18.0767L13.8705 18.0212L13.8874 17.9659L13.9048 17.9106L13.9229 17.8555L13.9416 17.8004L13.9609 17.7454L13.9807 17.6905L14.0012 17.6358L14.0223 17.5812L14.0439 17.5266L14.0662 17.4723L14.089 17.4181L14.1125 17.364L14.1365 17.31L14.1612 17.2563L14.1864 17.2027L14.2122 17.1493L14.2386 17.096L14.2656 17.0429L14.2932 16.9901L14.3214 16.9374L14.3501 16.885L14.3795 16.8327L14.4094 16.7807L14.4399 16.7289L14.471 16.6773L14.5027 16.626L14.5349 16.5749L14.5678 16.524L14.6012 16.4735L14.6351 16.4232L14.6697 16.3731L14.7048 16.3233L14.7405 16.2739L14.7767 16.2247L14.8135 16.1758L14.8509 16.1272L14.8888 16.0789L14.9273 16.0309L14.9663 15.9833L15.0059 15.936L15.046 15.889L15.0867 15.8424L15.1279 15.7961L15.1696 15.7501L15.2119 15.7045L15.2547 15.6593L15.298 15.6145L15.3419 15.57L15.3863 15.5259L15.4312 15.4822L15.4766 15.4389L15.5226 15.396L15.569 15.3535L15.616 15.3115L15.6635 15.2698L15.7114 15.2286L15.7599 15.1878L15.8088 15.1474L15.8583 15.1075L15.9082 15.068L15.9586 15.029L16.0094 14.9905L16.0608 14.9524L16.1126 14.9148L16.1649 14.8776L16.2176 14.841L16.2708 14.8048L16.3244 14.7691L16.3785 14.734L16.433 14.6993L16.488 14.6651L16.5434 14.6315L16.5992 14.5984L16.6554 14.5658L16.7121 14.5337L16.7691 14.5022L16.8266 14.4712L16.8845 14.4407L16.9428 14.4108L17.0014 14.3815L17.0605 14.3527L17.1199 14.3245L17.1797 14.2968L17.2399 14.2698L17.3004 14.2433L17.3613 14.2174L17.4226 14.1921L17.4842 14.1673L17.5461 14.1432L17.6084 14.1197L17.671 14.0968L17.7339 14.0745L17.7972 14.0528L17.8607 14.0317L17.9246 14.0112L17.9888 13.9914L18.0532 13.9722L18.118 13.9537L18.183 13.9358L18.2483 13.9185L18.3139 13.9019L18.3797 13.8859L18.4458 13.8706L18.5122 13.8559L18.5788 13.8419L18.6456 13.8285L18.7127 13.8159L18.7799 13.8039L18.8474 13.7925L18.9152 13.7819L18.9831 13.7719L19.0512 13.7626L19.1195 13.754L19.188 13.7461L19.2566 13.7389L19.3255 13.7324L19.3945 13.7265L19.4636 13.7214L19.5329 13.717L19.6023 13.7133L19.6719 13.7103L19.7416 13.708L19.8114 13.7064L19.8814 13.7055L19.9514 13.7053L20.0216 13.7059L20.0918 13.7072L20.1621 13.7092L20.2325 13.7119L20.3029 13.7154L20.3734 13.7195L20.444 13.7245L20.5146 13.7301L20.5853 13.7365L20.656 13.7436L20.7267 13.7514L20.7974 13.76L20.8681 13.7693L20.9389 13.7794L21.0096 13.7901L21.0803 13.8017L21.151 13.8139L21.2217 13.827L21.2923 13.8407L21.3629 13.8552L21.4334 13.8704L21.5039 13.8864L21.5743 13.9031L21.6446 13.9206L21.7148 13.9388L21.7849 13.9578L21.855 13.9775L21.9249 13.9979L21.9947 14.0191L22.0644 14.041L22.134 14.0637L22.2034 14.0871L22.2727 14.1113L22.3418 14.1362L22.4108 14.1618L22.4796 14.1882L22.5482 14.2153L22.6166 14.2432L22.6849 14.2718L22.7529 14.3011L22.8207 14.3312L22.8883 14.362L22.9557 14.3935L23.0229 14.4257L23.0898 14.4587L23.1564 14.4924L23.2229 14.5269L23.289 14.5621L23.3549 14.5979L23.4204 14.6346L23.4857 14.6719L23.5507 14.7099L23.6154 14.7487L23.6798 14.7881L23.7439 14.8283L23.8076 14.8692L23.8711 14.9108L23.9341 14.9531L23.9968 14.9961L24.0592 15.0398L24.1212 15.0841L24.1828 15.1292L24.2441 15.175L24.3049 15.2214L24.3654 15.2685L24.4255 15.3163L24.4851 15.3648L24.5444 15.4139L24.6032 15.4637L24.6615 15.5142L24.7195 15.5653L24.777 15.6171L24.834 15.6696L24.8906 15.7227L24.9467 15.7764L25.0023 15.8308L25.0575 15.8858L25.1122 15.9414L25.1663 15.9977L25.22 16.0546L25.2731 16.1121L25.3258 16.1702L25.3779 16.229L25.4295 16.2883L25.4805 16.3482L25.531 16.4088L25.5809 16.4699L25.6303 16.5316L25.6791 16.5939L25.7274 16.6568L25.775 16.7202L25.8221 16.7842L25.8686 16.8487L25.9145 16.9138L25.9598 16.9795L26.0045 17.0457L26.0485 17.1124L26.092 17.1797L26.1348 17.2475L26.177 17.3158L26.2185 17.3846L26.2594 17.4539L26.2996 17.5238L26.3392 17.5941L26.3781 17.6649L26.4163 17.7362L26.4539 17.8079L26.4907 17.8802L26.5269 17.9529L26.5624 18.026L26.5972 18.0996L26.6313 18.1737L26.6647 18.2481L26.6974 18.3231L26.7293 18.3984L26.7605 18.4741L26.791 18.5503L26.8208 18.6268L26.8498 18.7038L26.878 18.7811L26.9056 18.8588L26.9323 18.9369L26.9583 19.0154L26.9836 19.0942L27.0081 19.1733L27.0318 19.2528L27.0547 19.3326L27.0768 19.4128L27.0982 19.4933L27.1187 19.5741L27.1385 19.6551L27.1575 19.7365L27.1757 19.8182L27.193 19.9001L27.2096 19.9824L27.2253 20.0649L27.2403 20.1476L27.2544 20.2306L27.2677 20.3138L27.2801 20.3973L27.2917 20.481L27.3025 20.5648L27.3125 20.6489L27.3216 20.7332L27.3299 20.8177L27.3373 20.9024L27.3439 20.9872L27.3496 21.0722L27.3545 21.1574L27.3585 21.2427L27.3617 21.3281L27.364 21.4137L27.3655 21.4994L27.366 21.5852L27.3657 21.6711L27.3646 21.7571L27.3625 21.8432L27.3596 21.9293L27.3559 22.0155L27.3512 22.1018L27.3457 22.1881L27.3393 22.2745L27.332 22.3609L27.3238 22.4473L27.3148 22.5337L27.3048 22.6202L27.294 22.7066L27.2823 22.793L27.2697 22.8794L27.2562 22.9658L27.2418 23.0521L27.2266 23.1384L27.2104 23.2246L27.1934 23.3107L27.1755 23.3968L27.1567 23.4827L27.1369 23.5686L27.1164 23.6544L27.0949 23.74L27.0725 23.8255L27.0492 23.9109L27.0251 23.9962L27.0001 24.0812L26.9741 24.1662L26.9473 24.2509L26.9196 24.3355L26.8911 24.4199L26.8616 24.5041L26.8313 24.588L26.8 24.6718L26.7679 24.7553L26.7349 24.8386L26.7011 24.9217L26.6663 25.0045L26.6307 25.087L26.5943 25.1692L26.5569 25.2512L26.5187 25.3329L26.4796 25.4142L26.4397 25.4953L26.3989 25.576L26.3572 25.6565L26.3147 25.7365L26.2713 25.8163L26.2271 25.8956L26.182 25.9746L26.1361 26.0533L26.0893 26.1315L26.0417 26.2094L25.9933 26.2868L25.944 26.3638L25.8939 26.4405L25.843 26.5166L25.7912 26.5924L25.7387 26.6677L25.6853 26.7425L25.6311 26.8169L25.5761 26.8908L25.5203 26.9643L25.4637 27.0372L25.4063 27.1096L25.3481 27.1816L25.2891 27.253L25.2294 27.3238L25.1688 27.3942L25.1075 27.464L25.0455 27.5333L24.9826 27.602L24.919 27.6701L24.8547 27.7376L24.7896 27.8046L24.7237 27.871L24.6572 27.9367L24.5899 28.0019L24.5218 28.0664L24.4531 28.1304L24.3836 28.1937L24.3134 28.2563L24.2425 28.3183L24.171 28.3796L24.0987 28.4403L24.0257 28.5003L23.9521 28.5596L23.8778 28.6182L23.8028 28.6762L23.7272 28.7334L23.6509 28.7899L23.5739 28.8457L23.4964 28.9008L23.4182 28.9552L23.3393 29.0088L23.2599 29.0616L23.1798 29.1137L23.0991 29.1651L23.0179 29.2156L22.936 29.2654L22.8535 29.3144L22.7705 29.3627L22.6869 29.4101L22.6028 29.4567L22.5181 29.5025L22.4328 29.5475L22.347 29.5917L22.2607 29.6351L22.1738 29.6776L22.0865 29.7193L21.9986 29.7601L21.9102 29.8001L21.8214 29.8392L21.732 29.8775L21.6422 29.9149L21.5519 29.9514L21.4612 29.987L21.37 30.0218L21.2784 30.0556L21.1864 30.0886L21.0939 30.1206L21.001 30.1518L20.9077 30.182L20.814 30.2113L20.7199 30.2397L20.6255 30.2672L20.5307 30.2937L20.4355 30.3193L20.3399 30.344L20.2441 30.3677L20.1479 30.3905L20.0513 30.4123L19.9545 30.4331L19.8574 30.453L19.7599 30.4719L19.6622 30.4899L19.5642 30.5068L19.466 30.5228L19.3674 30.5378L19.2687 30.5518L19.1697 30.5649L19.0705 30.5769L18.971 30.588L18.8714 30.598L18.7715 30.6071L18.6715 30.6151L18.5713 30.6221L18.4709 30.6282L18.3704 30.6332L18.2697 30.6372L18.1689 30.6401L18.068 30.6421L17.9669 30.643L17.8658 30.6429L17.7645 30.6418L17.6632 30.6397L17.5618 30.6365L17.4603 30.6323L17.3588 30.627L17.2572 30.6208L17.1556 30.6134L17.054 30.6051L16.9524 30.5957L16.8508 30.5853L16.7492 30.5738L16.6476 30.5613L16.546 30.5477L16.4445 30.5331L16.343 30.5175L16.2416 30.5008L16.1402 30.4831L16.039 30.4643L15.9378 30.4445L15.8368 30.4236L15.7359 30.4017L15.6351 30.3787L15.5344 30.3547L15.4339 30.3297L15.3335 30.3036L15.2333 30.2765L15.1333 30.2483L15.0335 30.2191L14.9339 30.1889L14.8345 30.1576L14.7353 30.1253L14.6364 30.0919L14.5377 30.0575L14.4392 30.0221L14.3411 29.9857L14.2432 29.9482L14.1456 29.9097L14.0482 29.8702L13.9512 29.8296L13.8546 29.788L13.7582 29.7454L13.6622 29.7018L13.5666 29.6572L13.4713 29.6116L13.3763 29.5649L13.2818 29.5173L13.1877 29.4686L13.0939 29.419L13.0006 29.3684L12.9077 29.3167L12.8153 29.2641L12.7232 29.2105L12.6317 29.1559L12.5406 29.1004L12.45 29.0438L12.3599 28.9863L12.2702 28.9279L12.1811 28.8684L12.0925 28.8081L12.0045 28.7467L11.9169 28.6844L11.8299 28.6212L11.7435 28.557L11.6577 28.4919L11.5724 28.4259L11.4877 28.359L11.4036 28.2911L11.3201 28.2223L11.2373 28.1527L11.155 28.0821L11.0735 28.0106L10.9925 27.9382L10.9122 27.865L10.8326 27.7908L10.7536 27.7158L10.6754 27.64L10.5978 27.5632L10.5209 27.4857L10.4448 27.4072L10.3694 27.328L10.2947 27.2479L10.2207 27.1669L10.1475 27.0852L10.075 27.0026L10.0034 26.9193L9.93246 26.8351L9.86234 26.7501L9.79301 26.6644L9.72449 26.5779L9.65677 26.4906L9.58988 26.4026L9.52381 26.3138L9.45858 26.2242L9.39419 26.1339L9.33065 26.0429L9.26798 25.9512L9.20617 25.8587L9.14524 25.7656L9.0852 25.6717L9.02605 25.5772L8.96779 25.482L8.91045 25.3861L8.85402 25.2895L8.79851 25.1923L8.74393 25.0945L8.69029 24.996L8.63759 24.8969L8.58585 24.7971L8.53506 24.6968L8.48524 24.5958L8.43639 24.4943L8.38853 24.3922L8.34164 24.2895L8.29575 24.1863L8.25086 24.0825L8.20698 23.9781L8.1641 23.8733L8.12225 23.7679L8.08141 23.662L8.04161 23.5555L8.00285 23.4486L7.96512 23.3413L7.92845 23.2334L7.89282 23.1251L7.85826 23.0163L7.82476 22.9071L7.79233 22.7975L7.76097 22.6874L7.7307 22.577L7.70151 22.4661L7.67341 22.3548L7.6464 22.2432L7.62049 22.1312L7.59569 22.0189L7.57199 21.9062L7.54941 21.7931L7.52795 21.6798L7.5076 21.5661L7.48838 21.4522L7.47029 21.3379L7.45334 21.2234L7.43752 21.1086L7.42284 20.9935L7.4093 20.8783L7.39691 20.7627L7.38568 20.647L7.37559 20.531L7.36666 20.4149L7.3589 20.2986L7.35229 20.1821L7.34685 20.0654L7.34258 19.9486L7.33947 19.8316L7.33754 19.7145L7.33679 19.5973L7.33721 19.48L7.3388 19.3626L7.34158 19.2452L7.34555 19.1276L7.35069 19.01L7.35702 18.8924L7.36454 18.7747L7.37324 18.6571L7.38314 18.5394L7.39422 18.4217L7.4065 18.304L7.41997 18.1864L7.43463 18.0688L7.45048 17.9512L7.46752 17.8337L7.48576 17.7163L7.5052 17.599L7.52582 17.4818L7.54764 17.3647L7.57065 17.2478L7.59486 17.131L7.62026 17.0143L7.64685 16.8978L7.67463 16.7814L7.7036 16.6653L7.73377 16.5494L7.76511 16.4336L7.79765 16.3181L7.83137 16.2029L7.86628 16.0879L7.90237 15.9731L7.93964 15.8586L7.97808 15.7444L8.01771 15.6305L8.05851 15.517L8.10048 15.4037L8.14362 15.2908L8.18793 15.1782L8.23341 15.066L8.28005 14.9542L8.32784 14.8427L8.3768 14.7316L8.4269 14.621L8.47816 14.5107L8.53056 14.4009L8.58411 14.2916L8.6388 14.1827L8.69462 14.0743L8.75157 13.9663L8.80965 13.8589L8.86886 13.7519L8.92919 13.6455L8.99063 13.5395L9.05318 13.4342L9.11683 13.3294L9.18159 13.2251L9.24745 13.1214L9.3144 13.0183L9.38243 12.9158L9.45154 12.8139L9.52174 12.7127L9.593 12.612L9.66532 12.512L9.73871 12.4127L9.81315 12.314L9.88863 12.216L9.96516 12.1187L10.0427 12.0221L10.1213 11.9262L10.2009 11.831L10.2816 11.7366L10.3632 11.6429L10.4458 11.5499L10.5295 11.4578L10.6141 11.3664L10.6997 11.2757L10.7863 11.1859L10.8738 11.0969L10.9624 11.0087L11.0518 10.9213L11.1422 10.8348L11.2336 10.7491L11.3258 10.6643L11.419 10.5803L11.5131 10.4973L11.6081 10.4151L11.7041 10.3338L11.8008 10.2534L11.8985 10.174L11.9971 10.0954L12.0965 10.0178L12.1967 9.94119L12.2978 9.8655L12.3998 9.79077L12.5025 9.71702L12.6061 9.64425L12.7105 9.57248L12.8157 9.50171L12.9217 9.43195L13.0284 9.3632L13.1359 9.29549L13.2442 9.22881L13.3533 9.16318L13.463 9.0986L13.5735 9.03508L13.6847 8.97264L13.7967 8.91127L13.9093 8.85098L14.0226 8.79179L14.1366 8.73371L14.2513 8.67673L14.3666 8.62087L14.4825 8.56613L14.5991 8.51253L14.7163 8.46006L14.8342 8.40874L14.9526 8.35858L15.0716 8.30957L15.1912 8.26174L15.3114 8.21507L15.4321 8.16959L15.5534 8.12529L15.6752 8.08219L15.7975 8.04028L15.9203 7.99959L16.0437 7.9601L16.1675 7.92183L16.2918 7.88479L16.4165 7.84897L16.5417 7.81439L16.6674 7.78105L16.7934 7.74895L16.9199 7.71811L17.0468 7.68852L17.1741 7.66019L17.3017 7.63313L17.4297 7.60734L17.5581 7.58283L17.6868 7.55959L17.8158 7.53764L17.9451 7.51697L18.0748 7.4976L18.2047 7.47952L18.3349 7.46274L18.4653 7.44727L18.596 7.4331L18.727 7.42025L18.8582 7.40871L18.9895 7.39848L19.1211 7.38958L19.2529 7.382L19.3848 7.37574L19.5169 7.37082L19.6491 7.36722L19.7814 7.36496L19.9139 7.36403L20.0465 7.36444L20.1792 7.3662L20.3119 7.36929L20.4447 7.37373L20.5776 7.37951L20.7104 7.38664L20.8434 7.39511L20.9763 7.40494L21.1092 7.41611L21.2421 7.42863L21.375 7.44251L21.5078 7.45774L21.6405 7.47432L21.7732 7.49225L21.9058 7.51154L22.0383 7.53218L22.1707 7.55418L22.303 7.57752L22.4351 7.60222L22.5671 7.62827L22.6989 7.65567L22.8305 7.68443L22.9619 7.71453L23.0931 7.74598L23.2241 7.77878L23.3548 7.81292L23.4853 7.84841L23.6155 7.88524L23.7455 7.92342L23.8752 7.96293L24.0045 8.00378L24.1335 8.04596L24.2622 8.08948L24.3906 8.13432L24.5186 8.1805L24.6462 8.22799L24.7734 8.27681L24.9002 8.32695L25.0266 8.37841L25.1526 8.43117L25.2782 8.48525L25.4032 8.54063L25.5279 8.59731L25.652 8.65529L25.7756 8.71457L25.8987 8.77513L26.0214 8.83697L26.1434 8.9001L26.2649 8.96451L26.3859 9.03018L26.5063 9.09712L26.6261 9.16533L26.7453 9.23479L26.8638 9.3055L26.9818 9.37745L27.0991 9.45065L27.2157 9.52508L27.3317 9.60074L27.447 9.67762L27.5616 9.75572L27.6755 9.83503L27.7887 9.91554L27.9012 9.99725L28.0129 10.0801L28.1239 10.1642L28.234 10.2495L28.3435 10.3359L28.4521 10.4235L28.5599 10.5123L28.6669 10.6022L28.7731 10.6932L28.8784 10.7854L28.9829 10.8787L29.0865 10.9731L29.1892 11.0686L29.2911 11.1653L29.392 11.263L29.492 11.3618L29.5911 11.4617L29.6893 11.5626L29.7865 11.6646L29.8828 11.7677L29.9781 11.8718L30.0724 11.9769L30.1658 12.0831L30.2581 12.1902L30.3494 12.2984L30.4397 12.4075L30.529 12.5177L30.6172 12.6288L30.7044 12.7409L30.7905 12.8539L30.8755 12.9679L30.9594 13.0828L31.0422 13.1987L31.124 13.3154L31.2046 13.4331L31.2841 13.5516L31.3624 13.671L31.4397 13.7913L31.5157 13.9125L31.5906 14.0345L31.6643 14.1573L31.7369 14.281L31.8082 14.4055L31.8783 14.5307L31.9473 14.6568L32.015 14.7837L32.0815 14.9113L32.1467 15.0396L32.2108 15.1687L32.2735 15.2986L32.335 15.4291L32.3953 15.5604L32.4542 15.6924L32.5119 15.825L32.5683 15.9583L32.6234 16.0923L32.6771 16.2269L32.7296 16.3621L32.7807 16.4979L32.8305 16.6344L32.879 16.7714L32.9262 16.9091L32.972 17.0472L33.0164 17.186L33.0595 17.3253L33.1012 17.4651L33.1415 17.6054L33.1805 17.7462L33.218 17.8875L33.2542 18.0292L33.289 18.1715L33.3224 18.3141L33.3543 18.4572L33.3849 18.6007L33.414 18.7446L33.4418 18.8889L33.468 19.0336L33.4929 19.1786L33.5163 19.324L33.5383 19.4696L33.5588 19.6156L33.5779 19.762L33.5956 19.9085L33.6117 20.0554L33.6264 20.2025L33.6397 20.3499L33.6515 20.4975L33.6618 20.6453L33.6706 20.7933L33.678 20.9415L33.6839 21.0898L33.6883 21.2383L33.6912 21.3869L33.6926 21.5357L33.6926 21.6846L33.691 21.8335L33.688 21.9826L33.6834 22.1317L33.6774 22.2808L33.6698 22.43L33.6608 22.5792L33.6503 22.7284L33.6383 22.8776L33.6247 23.0268L33.6097 23.1759L33.5932 23.325L33.5751 23.474L33.5556 23.6229L33.5345 23.7717L33.512 23.9204L33.4879 24.0689L33.4624 24.2173L33.4353 24.3655L33.4067 24.5136L33.3767 24.6614L33.3451 24.809L33.3121 24.9565L33.2775 25.1036L33.2415 25.2505L33.2039 25.3972L33.1649 25.5435L33.1244 25.6896L33.0823 25.8353L33.0389 25.9807L32.9939 26.1257L32.9474 26.2704L32.8995 26.4147L32.8501 26.5586L32.7992 26.7021L32.7468 26.8452L32.693 26.9878L32.6378 27.13L32.581 27.2717L32.5228 27.4129L32.4632 27.5536L32.4021 27.6938L32.3396 27.8335L32.2756 27.9726L32.2102 28.1112L32.1434 28.2492L32.0752 28.3866L32.0055 28.5234L31.9345 28.6596L31.862 28.7951L31.7881 28.93L31.7128 29.0642L31.6362 29.1978L31.5581 29.3306L31.4787 29.4628L31.3979 29.5942L31.3158 29.7249L31.2322 29.8549L31.1474 29.984L31.0612 30.1125L30.9736 30.2401L30.8847 30.3669L30.7945 30.4929L30.703 30.618L30.6102 30.7423L30.516 30.8658L30.4206 30.9883L30.3239 31.11L30.2259 31.2308L30.1267 31.3506L30.0262 31.4696L29.9244 31.5876L29.8214 31.7046L29.7172 31.8207L29.6117 31.9357L29.5051 32.0498L29.3972 32.1629L29.2881 32.275L29.1778 32.386L29.0664 32.496L28.9538 32.6049L28.84 32.7127L28.7251 32.8195L28.6091 32.9252L28.4919 33.0297L28.3736 33.1332L28.2542 33.2355L28.1337 33.3366L28.0122 33.4367L27.8895 33.5355L27.7658 33.6332L27.641 33.7296L27.5152 33.8249L27.3884 33.919L27.2606 34.0118L27.1317 34.1034L27.0019 34.1938L26.8711 34.2829L26.7393 34.3707L26.6065 34.4573L26.4728 34.5425L26.3382 34.6265L26.2027 34.7092L26.0662 34.7905L25.9289 34.8705L25.7907 34.9492L25.6516 35.0265L25.5116 35.1025L25.3708 35.1771L25.2292 35.2504L25.0868 35.3222L24.9436 35.3926L24.7995 35.4617L24.6547 35.5293L24.5092 35.5955L24.3629 35.6603L24.2158 35.7237L24.0681 35.7856L23.9196 35.846L23.7704 35.905L23.6206 35.9625L23.4701 36.0185L23.319 36.0731L23.1672 36.1261L23.0148 36.1777L22.8618 36.2277L22.7082 36.2763L22.5541 36.3233L22.3993 36.3688L22.2441 36.4127L22.0883 36.4552L21.932 36.496L21.7752 36.5353L21.6179 36.5731L21.4601 36.6093L21.3019 36.6439L21.1433 36.677L20.9842 36.7084L20.8247 36.7383L20.6649 36.7666L20.5046 36.7933L20.344 36.8184L20.1831 36.8419L20.0218 36.8637L19.8602 36.884L19.6984 36.9026L19.5362 36.9197L19.3738 36.9351L19.2111 36.9488L19.0482 36.961L18.8851 36.9715L18.7218 36.9803L18.5583 36.9876L18.3947 36.9932L18.2309 36.9971L18.067 36.9994L17.9029 37L17.7388 36.999L17.5746 36.9963L17.4103 36.992L17.2459 36.986L17.0816 36.9783L16.9172 36.969L16.7528 36.958L16.5884 36.9454L16.4241 36.9311L16.2598 36.9151L16.0956 36.8975L15.9314 36.8782L15.7674 36.8572L15.6035 36.8346L15.4397 36.8103L15.2761 36.7843L15.1126 36.7567L14.9493 36.7274L14.7863 36.6964L14.6234 36.6638L14.4608 36.6296L14.2984 36.5936L14.1363 36.556L13.9745 36.5168L13.813 36.4759L13.6518 36.4333L13.491 36.3892L13.3305 36.3433L13.1703 36.2958L13.0106 36.2467L12.8513 36.1959L12.6923 36.1435L12.5338 36.0895L12.3758 36.0339L12.2182 35.9766L12.0612 35.9177L11.9046 35.8572L11.7485 35.795L11.593 35.7313L11.4381 35.666L11.2837 35.599L11.1298 35.5305L10.9766 35.4604L10.824 35.3887L10.6721 35.3154L10.5208 35.2406L10.3701 35.1641L10.2201 35.0862L10.0709 35.0066L9.92233 34.9256L9.77451 34.8429L9.62743 34.7588L9.48111 34.6731L9.33558 34.5859L9.19083 34.4972L9.04689 34.4069L8.90378 34.3152L8.76151 34.222L8.62009 34.1273L8.47954 34.0311L8.33988 33.9335L8.20112 33.8344L8.06328 33.7338L7.92637 33.6318L7.7904 33.5283L7.65539 33.4235L7.52136 33.3172L7.38833 33.2095L7.25629 33.1004L7.12528 32.9899L6.9953 32.8781L6.86637 32.7648L6.7385 32.6502L6.61171 32.5343L6.48601 32.417L6.36142 32.2984L6.23795 32.1785L6.11561 32.0572L5.99442 31.9347L5.87438 31.8108L5.75552 31.6857L5.63785 31.5594L5.52138 31.4318L5.40613 31.3029L5.2921 31.1728L5.17931 31.0415L5.06778 30.909L4.95751 30.7752L4.84852 30.6403L4.74082 30.5043L4.63443 30.3671L4.52935 30.2287L4.42559 30.0892L4.32318 29.9486L4.22212 29.8068L4.12243 29.664L4.02411 29.5201L3.92717 29.3751L3.83164 29.2291L3.73752 29.082L3.64481 28.9339L3.55354 28.7848L3.46371 28.6347L3.37534 28.4837L3.28843 28.3316L3.20299 28.1786L3.11904 28.0246L3.03659 27.8697L2.95564 27.714L2.8762 27.5573L2.79829 27.3997L2.72192 27.2412L2.64709 27.0819L2.57382 26.9218L2.5021 26.7609L2.43196 26.5991L2.3634 26.4365L2.29644 26.2732L2.23106 26.1091L2.1673 25.9443L2.10515 25.7787L2.04462 25.6124L1.98573 25.4455L1.92847 25.2778L1.87286 25.1095L1.81891 24.9405L1.76662 24.7709L1.71599 24.6007L1.66704 24.4299L1.61978 24.2585L1.5742 24.0865L1.53032 23.914L1.48814 23.741L1.44767 23.5674L1.40892 23.3934L1.37188 23.2189L1.33658 23.0439L1.303 22.8684L1.27116 22.6926L1.24106 22.5163L1.21271 22.3396L1.18611 22.1625L1.16127 21.9851L1.13819 21.8074L1.11687 21.6293L1.09733 21.4509L1.07956 21.2722L1.06356 21.0933L1.04935 20.9141L1.03692 20.7347L1.02628 20.555L1.01743 20.3752L1.01038 20.1951L1.00512 20.0149L1.00166 19.8346L1 19.6541L1.00015 19.4735L1.0021 19.2929L1.00585 19.1121L1.01142 18.9314L1.0188 18.7505L1.02799 18.5697L1.03899 18.3888L1.05181 18.208L1.06644 18.0272L1.08288 17.8465L1.10115 17.6658L1.12122 17.4852L1.14312 17.3048L1.16682 17.1245L1.19235 16.9443L1.21968 16.7643L1.24884 16.5844L1.2798 16.4048L1.31258 16.2254L1.34716 16.0462L1.38356 15.8673L1.42176 15.6887L1.46177 15.5103L1.50358 15.3323L1.54719 15.1546L1.5926 14.9773L1.6398 14.8003L1.6888 14.6237L1.73959 14.4475L1.79217 14.2718L1.84653 14.0964L1.90267 13.9216L1.96059 13.7472L2.02027 13.5733L2.08173 13.3999L2.14495 13.2271L2.20993 13.0548L2.27667 12.8831L2.34516 12.712L2.41539 12.5414L2.48736 12.3715L2.56106 12.2023L2.6365 12.0336L2.71365 11.8657L2.79253 11.6985L2.87312 11.5319L2.95541 11.3661L3.0394 11.2011L3.12508 11.0368L3.21244 10.8733L3.30149 10.7106L3.3922 10.5487L3.48458 10.3876L3.57861 10.2274L3.6743 10.0681L3.77162 9.90965L3.87057 9.7521L3.97115 9.59546L4.07334 9.43977L4.17714 9.28502L4.28254 9.13125L4.38953 8.97846L4.4981 8.82667L4.60824 8.67591L4.71994 8.52617L4.83319 8.37749L4.94798 8.22988L5.06431 8.08335L5.18216 7.93792L5.30151 7.79361L5.42237 7.65043L5.54472 7.50839L5.66855 7.36752L5.79385 7.22783L5.92061 7.08933L6.04881 6.95204L6.17845 6.81597L6.30951 6.68114L6.44199 6.54757L6.57586 6.41527L6.71112 6.28425L6.84776 6.15453L6.98576 6.02612L7.1251 5.89904L7.26579 5.7733L7.40781 5.64892L7.55113 5.52591L7.69576 5.40428L7.84167 5.28405L7.98885 5.16523L8.13729 5.04784L8.28698 4.93188L8.4379 4.81738L8.59003 4.70434L8.74337 4.59278L8.8979 4.48271L9.0536 4.37414L9.21047 4.26709L9.36848 4.16156L9.52762 4.05758L9.68787 3.95515L9.84923 3.85428L10.0117 3.75499L10.1752 3.65729L10.3398 3.56119L10.5054 3.4667L10.672 3.37384L10.8396 3.2826L11.0083 3.19301L11.1779 3.10508L11.3484 3.01881L11.52 2.93422L11.6924 2.85132L11.8657 2.77011L12.04 2.69062L12.2151 2.61283L12.3911 2.53678L12.5679 2.46246L12.7456 2.38988L12.924 2.31906L13.1033 2.25001L13.2833 2.18272L13.4641 2.11722L13.6457 2.05351L13.8279 1.99159L14.0109 1.93149L14.1945 1.87319L14.3788 1.81672L14.5638 1.76207L14.7494 1.70927L14.9356 1.65831L15.1224 1.6092L15.3098 1.56194L15.4978 1.51655L15.6863 1.47304L15.8753 1.4314L16.0648 1.39164L16.2549 1.35378L16.4453 1.31781L16.6363 1.28374L16.8276 1.25158L17.0194 1.22133L17.2116 1.193L17.4041 1.16659L17.597 1.1421L17.7902 1.11955L17.9838 1.09893L18.1776 1.08026L18.3717 1.06352L18.5661 1.04873L18.7607 1.03589L18.9555 1.02501L19.1506 1.01608L19.3458 1.00912L19.5412 1.00411L19.7367 1.00107L19.9323 1L20.1281 1.0009L20.3239 1.00377L20.5198 1.00861L20.7157 1.01543L20.9116 1.02422L21.1076 1.03499L21.3035 1.04774L21.4994 1.06246L21.6953 1.07917L21.891 1.09786L22.0867 1.11852L22.2822 1.14117L22.4777 1.1658L22.6729 1.1924L22.868 1.22098L23.0629 1.25155L23.2576 1.28408L23.452 1.3186L23.6462 1.35508L23.8401 1.39354L24.0337 1.43397L24.227 1.47637L24.42 1.52073L24.6126 1.56706L24.8049 1.61535L24.9967 1.66559L25.1881 1.71779L25.3791 1.77194L25.5697 1.82804L25.7597 1.88609L25.9493 1.94607L26.1384 2.00799L26.3269 2.07184L26.5149 2.13762L26.7023 2.20532L26.8891 2.27495L27.0753 2.34648L27.2609 2.41992L27.4458 2.49526L27.6301 2.5725L27.8136 2.65163L27.9965 2.73264L28.1786 2.81554L28.36 2.9003L28.5406 2.98693L28.7205 3.07541L28.8995 3.16575L29.0777 3.25793L29.2551 3.35195L29.4316 3.44779L29.6073 3.54546L29.782 3.64494L29.9559 3.74622L30.1287 3.8493L30.3007 3.95417L30.4717 4.06081L30.6417 4.16923L30.8106 4.2794L30.9786 4.39133L31.1455 4.50499L31.3113 4.62039L31.4761 4.73751L31.6398 4.85635L31.8024 4.97688L31.9638 5.0991L32.1241 5.22301L32.2832 5.34858L32.4411 5.47582L32.5979 5.6047L32.7534 5.73521L32.9077 5.86735L33.0607 6.0011L33.2124 6.13645L33.3629 6.2734L33.5121 6.41191L33.66 6.55199L33.8065 6.69362L33.9517 6.83679L34.0955 6.98149L34.2379 7.1277L34.3789 7.2754L34.5186 7.4246L34.6567 7.57526L34.7935 7.72738L34.9288 7.88095L35.0626 8.03595L35.1949 8.19236L35.3257 8.35018L35.455 8.50938L35.5828 8.66995L35.709 8.83188L35.8337 8.99516L35.9568 9.15976L36.0782 9.32567L36.1981 9.49288L36.3164 9.66137L36.433 9.83113L36.548 10.0021L36.6614 10.1744L36.773 10.3478L36.883 10.5225L36.9913 10.6983L37.0979 10.8753L37.2027 11.0535L37.3058 11.2328L37.4072 11.4132L37.5068 11.5947L37.6047 11.7773L37.7008 11.9609L37.795 12.1456L37.8875 12.3314L37.9782 12.5181L38.067 12.7058L38.154 12.8946L38.2391 13.0842L38.3224 13.2749L38.4038 13.4664L38.4834 13.6588L38.561 13.8521L38.6368 14.0463L38.7106 14.2414L38.7825 14.4372L38.8526 14.6339L38.9206 14.8314L38.9867 15.0296L39.0509 15.2286L39.1131 15.4283L39.1734 15.6288L39.2317 15.8299L39.288 16.0317L39.3422 16.2341L39.3945 16.4372L39.4448 16.6409L39.4931 16.8452L39.5394 17.0501L39.5836 17.2555L39.6258 17.4615L39.666 17.668L39.7041 17.8749L39.7401 18.0824L39.7741 18.2903L39.8061 18.4986L39.836 18.7073L39.8638 18.9164L39.8895 19.1259L39.9131 19.3358L39.9347 19.546L39.9542 19.7564L39.9715 19.9672L39.9868 20.1782L40 20.3895L20.9534 20.5916Z" stroke="url(#paint0_linear_60_909)" stroke-width="2"/>
<defs>
<linearGradient id="paint0_linear_60_909" x1="20.5" y1="1" x2="20.5" y2="37" gradientUnits="userSpaceOnUse">
<stop stop-color="#E9BA12"/>
<stop offset="1" stop-opacity="0"/>
</linearGradient>
</defs>
</svg>
